<svg aria-hidden="true" style="position: absolute; width: 0; height: 0; overflow: hidden;" version="1.1" xmlns="http://www.w3.org/2000/svg" xmlns:xlink="http://www.w3.org/1999/xlink">
<defs>
<symbol id="icon-light-bulb" viewBox="0 0 32 32">
<path d="M18.621 19.939c1.235-0.317 2.309-1.014 3.104-2.015 0.975-1.228 1.407-2.761 1.217-4.317s-0.979-2.941-2.221-3.898c-1.203-0.928-2.704-1.34-4.224-1.161s-2.884 0.928-3.84 2.11c-0.819 1.013-1.266 2.235-1.292 3.534-0.042 2.108-0.769 4.155-2.046 5.764l-1.397 1.76c-0.62 0.781-0.489 1.92 0.292 2.54l1.317 1.045c0.781 0.62 1.92 0.489 2.54-0.292l1.397-1.76c1.291-1.626 3.070-2.773 5.155-3.308zM12.108 14.205c0.023-1.132 0.412-2.197 1.127-3.080 1.716-2.122 4.869-2.493 7.030-0.827 1.083 0.836 1.771 2.042 1.937 3.399s-0.211 2.694-1.061 3.764c-0.693 0.873-1.628 1.48-2.705 1.757-2.197 0.563-4.086 1.756-5.471 3.453l-2.977-2.363c1.324-1.718 2.076-3.879 2.121-6.102zM8.661 21.979l0.188-0.236 2.711 2.708-0.073 0.092c-0.039 0.049-0.081 0.092-0.126 0.132l-2.699-2.697zM9.315 21.155l0.21-0.265 2.982 2.367-0.481 0.607-2.711-2.708zM8.675 23.67c-0.313-0.249-0.448-0.64-0.387-1.009l2.283 2.282c-0.205-0.015-0.407-0.090-0.58-0.227l-1.317-1.045z"></path>
<path d="M13.94 12.46c0.098-0.171 0.212-0.336 0.338-0.492 0.129-0.16 0.105-0.395-0.055-0.524s-0.395-0.105-0.524 0.055c-0.15 0.186-0.286 0.384-0.404 0.588-0.093 0.162-0.051 0.365 0.091 0.478 0.014 0.011 0.030 0.022 0.046 0.031 0.178 0.103 0.406 0.041 0.509-0.137z"></path>
<path d="M12.139 18.254c0.030 0.024 0.065 0.044 0.103 0.058 0.193 0.071 0.407-0.028 0.478-0.221 0.457-1.24 0.703-2.539 0.729-3.86 0.004-0.218 0.028-0.436 0.069-0.648 0.040-0.202-0.092-0.398-0.294-0.437s-0.398 0.092-0.437 0.294c-0.050 0.254-0.078 0.515-0.083 0.776-0.025 1.238-0.255 2.455-0.683 3.617-0.057 0.155-0.005 0.323 0.118 0.421z"></path>
<path d="M19.446 17.743c-0.097-0.181-0.323-0.249-0.504-0.152-0.263 0.141-0.545 0.251-0.839 0.326-0.199 0.051-0.319 0.254-0.268 0.453 0.021 0.082 0.068 0.15 0.129 0.199 0.088 0.070 0.207 0.099 0.324 0.069 0.352-0.090 0.69-0.222 1.006-0.392 0.181-0.097 0.249-0.323 0.152-0.504z"></path>
<path d="M19.489 11.393c1.609 1.277 1.879 3.625 0.602 5.233-0.073 0.091-0.15 0.18-0.23 0.264-0.142 0.149-0.137 0.385 0.012 0.527 0.008 0.008 0.017 0.016 0.026 0.023 0.149 0.118 0.367 0.106 0.501-0.035 0.096-0.1 0.188-0.206 0.275-0.315 1.532-1.931 1.209-4.748-0.722-6.28-0.161-0.128-0.395-0.101-0.523 0.060s-0.101 0.395 0.060 0.523z"></path>
<path d="M21.185 9.256c0.161 0.128 0.395 0.101 0.523-0.060l1.297-1.634c0.128-0.161 0.101-0.395-0.060-0.523s-0.395-0.101-0.523 0.060l-1.297 1.634c-0.128 0.161-0.101 0.395 0.060 0.523z"></path>
<path d="M17.776 7.49c-0.020 0.137 0.036 0.267 0.137 0.347 0.049 0.039 0.11 0.067 0.177 0.077 0.203 0.030 0.393-0.11 0.423-0.314l0.306-2.063c0.030-0.204-0.11-0.393-0.314-0.423s-0.393 0.11-0.423 0.314l-0.306 2.063z"></path>
<path d="M20.778 22.574l-0.766-1.939c-0.076-0.191-0.292-0.285-0.483-0.21s-0.285 0.292-0.21 0.483l0.766 1.939c0.025 0.063 0.065 0.115 0.115 0.155 0.101 0.080 0.241 0.106 0.369 0.055 0.191-0.076 0.285-0.292 0.21-0.483z"></path>
<path d="M13.487 6.149l0.766 1.939c0.025 0.063 0.065 0.115 0.115 0.155 0.101 0.080 0.241 0.105 0.369 0.055 0.191-0.076 0.285-0.292 0.21-0.483l-0.766-1.939c-0.076-0.191-0.292-0.285-0.483-0.21s-0.285 0.292-0.21 0.483z"></path>
<path d="M24.396 19.651l-1.634-1.297c-0.161-0.128-0.395-0.101-0.523 0.060s-0.101 0.395 0.060 0.523l1.634 1.297c0.161 0.128 0.395 0.101 0.523-0.060s0.101-0.395-0.060-0.523z"></path>
<path d="M12.027 10.309c0.128-0.161 0.101-0.395-0.060-0.523l-1.634-1.297c-0.161-0.128-0.395-0.101-0.523 0.060s-0.101 0.395 0.060 0.523l1.634 1.297c0.161 0.128 0.395 0.101 0.523-0.060z"></path>
<path d="M23.718 15.666c0.049 0.039 0.11 0.067 0.177 0.076l2.063 0.306c0.203 0.030 0.393-0.11 0.423-0.314s-0.11-0.393-0.314-0.423l-2.063-0.306c-0.203-0.030-0.393 0.11-0.423 0.314-0.020 0.137 0.036 0.267 0.137 0.347z"></path>
<path d="M10.37 12.982l-2.063-0.306c-0.203-0.030-0.393 0.11-0.423 0.314-0.020 0.136 0.036 0.267 0.137 0.347 0.049 0.039 0.11 0.066 0.177 0.076l2.063 0.306c0.204 0.030 0.393-0.11 0.423-0.314s-0.11-0.393-0.314-0.423z"></path>
<path d="M23.196 11.966c0.025 0.063 0.065 0.115 0.115 0.155 0.101 0.080 0.24 0.106 0.369 0.055l1.939-0.766c0.191-0.076 0.285-0.292 0.21-0.483s-0.292-0.285-0.483-0.21l-1.939 0.766c-0.191 0.076-0.285 0.292-0.21 0.483z"></path>
</symbol>

<symbol id="icon-burger-menu" viewBox="0 0 57 32">
<path fill="#39515e" style="fill: var(--color1, #39515e)" d="M1.684 0h53.102c0.93 0 1.684 0.754 1.684 1.684v2.279c0 0.93-0.754 1.684-1.684 1.684h-53.102c-0.93 0-1.684-0.754-1.684-1.684v-2.279c0-0.93 0.754-1.684 1.684-1.684z"></path>
<path fill="#39515e" style="fill: var(--color1, #39515e)" d="M1.684 13.176h53.102c0.93 0 1.684 0.754 1.684 1.684v2.279c0 0.93-0.754 1.684-1.684 1.684h-53.102c-0.93 0-1.684-0.754-1.684-1.684v-2.279c0-0.93 0.754-1.684 1.684-1.684z"></path>
<path fill="#39515e" style="fill: var(--color1, #39515e)" d="M1.684 26.353h36.574c0.93 0 1.684 0.754 1.684 1.684v2.279c0 0.93-0.754 1.684-1.684 1.684h-36.574c-0.93 0-1.684-0.754-1.684-1.684v-2.279c0-0.93 0.754-1.684 1.684-1.684z"></path>
</symbol>
</defs>
</svg>
